<svg width="24" height="24" viewBox="0 0 24 24" fill="none" xmlns="http://www.w3.org/2000/svg">
<g opacity="0.9">
<path fill-rule="evenodd" clip-rule="evenodd" d="M12.0005 1.30273L21.5938 6.6436V17.3564L12.0005 22.6973L2.40723 17.3564V6.6436L12.0005 1.30273ZM3.40723 7.2314V16.7686L12.0005 21.5527L20.5938 16.7686V7.2314L12.0005 2.44726L3.40723 7.2314ZM12 9.5C10.6193 9.5 9.5 10.6193 9.5 12C9.5 13.3807 10.6193 14.5 12 14.5C13.3807 14.5 14.5 13.3807 14.5 12C14.5 10.6193 13.3807 9.5 12 9.5ZM8.5 12C8.5 10.067 10.067 8.5 12 8.5C13.933 8.5 15.5 10.067 15.5 12C15.5 13.933 13.933 15.5 12 15.5C10.067 15.5 8.5 13.933 8.5 12Z" fill="#13161B"/>
</g>
</svg>
