<svg width="24" height="24" viewBox="0 0 24 24" fill="none" xmlns="http://www.w3.org/2000/svg">
<path fill-rule="evenodd" clip-rule="evenodd" d="M21.5 7.25C21.5 6.55806 21.1613 5.94412 20.6436 5.43414C20.1277 4.92588 19.4068 4.49119 18.5563 4.13681C16.8531 3.42715 14.5348 3 12 3C9.4652 3 7.14692 3.42715 5.44373 4.13681C4.59323 4.49119 3.87231 4.92588 3.35637 5.43414C2.83868 5.94412 2.5 6.55806 2.5 7.25V16.75C2.5 17.4419 2.83868 18.0559 3.35637 18.5659C3.87231 19.0741 4.59323 19.5088 5.44373 19.8632C7.14692 20.5729 9.4652 21 12 21C14.5348 21 16.8531 20.5729 18.5563 19.8632C19.4068 19.5088 20.1277 19.0741 20.6436 18.5659C21.1613 18.0559 21.5 17.4419 21.5 16.75V7.25ZM4.05816 6.14653C3.665 6.53382 3.5 6.90641 3.5 7.25C3.5 7.59359 3.665 7.96618 4.05816 8.35347C4.45307 8.74251 5.05017 9.11587 5.82835 9.44011C7.38251 10.0877 9.56423 10.5 12 10.5C14.4358 10.5 16.6175 10.0877 18.1717 9.44011C18.9498 9.11587 19.5469 8.74251 19.9418 8.35347C20.335 7.96618 20.5 7.59359 20.5 7.25C20.5 6.90641 20.335 6.53382 19.9418 6.14653C19.5469 5.75749 18.9498 5.38413 18.1717 5.05989C16.6175 4.41232 14.4358 4 12 4C9.56423 4 7.38251 4.41232 5.82835 5.05989C5.05017 5.38413 4.45307 5.75749 4.05816 6.14653ZM18.5563 10.3632C19.3305 10.0406 19.9974 9.6514 20.5 9.20076V12C20.5 12.3436 20.335 12.7162 19.9418 13.1035C19.5469 13.4925 18.9498 13.8659 18.1717 14.1901C16.6175 14.8377 14.4358 15.25 12 15.25C9.56423 15.25 7.38251 14.8377 5.82835 14.1901C5.05017 13.8659 4.45307 13.4925 4.05816 13.1035C3.665 12.7162 3.5 12.3436 3.5 12V9.20076C4.00259 9.6514 4.66946 10.0406 5.44373 10.3632C7.14692 11.0729 9.4652 11.5 12 11.5C14.5348 11.5 16.8531 11.0729 18.5563 10.3632ZM3.5 13.9508C4.00259 14.4014 4.66946 14.7906 5.44373 15.1132C7.14692 15.8229 9.4652 16.25 12 16.25C14.5348 16.25 16.8531 15.8229 18.5563 15.1132C19.3305 14.7906 19.9974 14.4014 20.5 13.9508V16.75C20.5 17.0936 20.335 17.4662 19.9418 17.8535C19.5469 18.2425 18.9498 18.6159 18.1717 18.9401C16.6175 19.5877 14.4358 20 12 20C9.56423 20 7.38251 19.5877 5.82835 18.9401C5.05017 18.6159 4.45307 18.2425 4.05816 17.8535C3.665 17.4662 3.5 17.0936 3.5 16.75V13.9508Z" fill="#13161B"/>
<path fill-rule="evenodd" clip-rule="evenodd" d="M21.5 7.25C21.5 6.55806 21.1613 5.94412 20.6436 5.43414C20.1277 4.92588 19.4068 4.49119 18.5563 4.13681C16.8531 3.42715 14.5348 3 12 3C9.4652 3 7.14692 3.42715 5.44373 4.13681C4.59323 4.49119 3.87231 4.92588 3.35637 5.43414C2.83868 5.94412 2.5 6.55806 2.5 7.25V16.75C2.5 17.4419 2.83868 18.0559 3.35637 18.5659C3.87231 19.0741 4.59323 19.5088 5.44373 19.8632C7.14692 20.5729 9.4652 21 12 21C14.5348 21 16.8531 20.5729 18.5563 19.8632C19.4068 19.5088 20.1277 19.0741 20.6436 18.5659C21.1613 18.0559 21.5 17.4419 21.5 16.75V7.25ZM4.05816 6.14653C3.665 6.53382 3.5 6.90641 3.5 7.25C3.5 7.59359 3.665 7.96618 4.05816 8.35347C4.45307 8.74251 5.05017 9.11587 5.82835 9.44011C7.38251 10.0877 9.56423 10.5 12 10.5C14.4358 10.5 16.6175 10.0877 18.1717 9.44011C18.9498 9.11587 19.5469 8.74251 19.9418 8.35347C20.335 7.96618 20.5 7.59359 20.5 7.25C20.5 6.90641 20.335 6.53382 19.9418 6.14653C19.5469 5.75749 18.9498 5.38413 18.1717 5.05989C16.6175 4.41232 14.4358 4 12 4C9.56423 4 7.38251 4.41232 5.82835 5.05989C5.05017 5.38413 4.45307 5.75749 4.05816 6.14653ZM18.5563 10.3632C19.3305 10.0406 19.9974 9.6514 20.5 9.20076V12C20.5 12.3436 20.335 12.7162 19.9418 13.1035C19.5469 13.4925 18.9498 13.8659 18.1717 14.1901C16.6175 14.8377 14.4358 15.25 12 15.25C9.56423 15.25 7.38251 14.8377 5.82835 14.1901C5.05017 13.8659 4.45307 13.4925 4.05816 13.1035C3.665 12.7162 3.5 12.3436 3.5 12V9.20076C4.00259 9.6514 4.66946 10.0406 5.44373 10.3632C7.14692 11.0729 9.4652 11.5 12 11.5C14.5348 11.5 16.8531 11.0729 18.5563 10.3632ZM3.5 13.9508C4.00259 14.4014 4.66946 14.7906 5.44373 15.1132C7.14692 15.8229 9.4652 16.25 12 16.25C14.5348 16.25 16.8531 15.8229 18.5563 15.1132C19.3305 14.7906 19.9974 14.4014 20.5 13.9508V16.75C20.5 17.0936 20.335 17.4662 19.9418 17.8535C19.5469 18.2425 18.9498 18.6159 18.1717 18.9401C16.6175 19.5877 14.4358 20 12 20C9.56423 20 7.38251 19.5877 5.82835 18.9401C5.05017 18.6159 4.45307 18.2425 4.05816 17.8535C3.665 17.4662 3.5 17.0936 3.5 16.75V13.9508Z" fill="black" fill-opacity="0.2"/>
</svg>
