<svg width="24" height="24" viewBox="0 0 24 24" fill="none" xmlns="http://www.w3.org/2000/svg">
<path d="M12 3.5C16.9706 3.5 21 5.17893 21 7.25C21 9.32107 16.9706 11 12 11C7.119 11 3.14551 9.38102 3.00391 7.36156V9.42051L3.00548 9.42206C3.58193 9.98992 4.36476 10.4553 5.25142 10.8247C7.02913 11.5654 9.41569 12 12 12C14.5843 12 16.9709 11.5654 18.7486 10.8247C19.6352 10.4553 20.4181 9.98992 20.9945 9.42206L21 9.41664V11.75C21 13.8211 16.9706 15.5 12 15.5C7.02944 15.5 3 13.8211 3 11.75V7.25C3 5.17893 7.02944 3.5 12 3.5Z" fill="#0052D9"/>
<path d="M3 13.9167V16.75C3 18.8211 7.02944 20.5 12 20.5C16.9706 20.5 21 18.8211 21 16.75V13.9166L20.9945 13.9221C20.4181 14.4899 19.6352 14.9553 18.7486 15.3247C16.9709 16.0654 14.5843 16.5 12 16.5C9.41569 16.5 7.02913 16.0654 5.25142 15.3247C4.36476 14.9553 3.58193 14.4899 3.00548 13.9221L3 13.9167Z" fill="#0052D9"/>
</svg>
