<svg width="24" height="24" viewBox="0 0 24 24" fill="none" xmlns="http://www.w3.org/2000/svg">
<mask id="mask0_3961_9406" style="mask-type:alpha" maskUnits="userSpaceOnUse" x="0" y="2" width="12" height="20">
<path d="M0.744141 2.57129H11.9204V21.384H0.744141V2.57129Z" fill="white"/>
</mask>
<g mask="url(#mask0_3961_9406)">
<path fill-rule="evenodd" clip-rule="evenodd" d="M11.92 11.9999L6.73574 20.9806C6.51285 21.3664 6.01963 21.4986 5.63381 21.2758L1.55037 18.9184C1.05123 18.6304 0.743652 18.0977 0.743652 17.5214V6.47895C0.743652 5.90265 1.05109 5.37004 1.55023 5.08196L5.52452 2.78737C6.02353 2.49928 6.63828 2.49928 7.13741 2.78723L11.92 5.54749L1.96912 11.3023C1.4322 11.6128 1.43193 12.3878 1.96885 12.6986L5.52829 14.759C6.02783 15.0482 6.64379 15.0485 7.14346 14.7597L11.92 11.9999Z" fill="#00A870"/>
</g>
<path fill-rule="evenodd" clip-rule="evenodd" d="M11.9204 11.9994L17.1047 3.01866C17.3276 2.63285 17.8208 2.5007 18.2066 2.72345L22.2901 5.08068C22.7892 5.3689 23.0968 5.90151 23.0968 6.47781V17.5203C23.0968 18.0966 22.7894 18.6292 22.2902 18.9173L18.3159 21.2119C17.8169 21.5 17.2022 21.5 16.703 21.212L11.9204 18.4518L21.8713 12.697C22.4082 12.3864 22.4085 11.6114 21.8716 11.3006L18.3122 9.24022C17.8126 8.95106 17.1967 8.95079 16.697 9.23955L11.9204 11.9994Z" fill="#4787F0"/>
</svg>
