<svg width="24" height="24" viewBox="0 0 24 24" fill="none" xmlns="http://www.w3.org/2000/svg">
<path fill-rule="evenodd" clip-rule="evenodd" d="M12.0001 11.5407C14.4671 11.5407 16.4669 9.54079 16.4669 7.0738C16.4669 4.60682 14.4671 2.60693 12.0001 2.60693C9.53309 2.60693 7.5332 4.60682 7.5332 7.0738C7.5332 9.54079 9.53309 11.5407 12.0001 11.5407ZM13.4565 14.6431C13.4565 13.8146 14.1281 13.1431 14.9565 13.1431H20.2065C21.035 13.1431 21.7065 13.8146 21.7065 14.6431V19.8931C21.7065 20.7215 21.035 21.3931 20.2065 21.3931H14.9565C14.1281 21.3931 13.4565 20.7215 13.4565 19.8931V14.6431ZM5.67884 13.8733C6.14457 13.0666 7.30889 13.0666 7.77462 13.8733L10.9961 19.4531C11.4618 20.2597 10.8797 21.2681 9.9482 21.2681H3.50526C2.5738 21.2681 1.99164 20.2597 2.45737 19.4531L5.67884 13.8733Z" fill="#0052D9"/>
</svg>
