<svg width="24" height="24" viewBox="0 0 24 24" fill="none" xmlns="http://www.w3.org/2000/svg">
<path fill-rule="evenodd" clip-rule="evenodd" d="M15.4669 7.0738C15.4669 8.9885 13.9148 10.5407 12.0001 10.5407C10.0854 10.5407 8.5332 8.9885 8.5332 7.0738C8.5332 5.1591 10.0854 3.60693 12.0001 3.60693C13.9148 3.60693 15.4669 5.1591 15.4669 7.0738ZM16.4669 7.0738C16.4669 9.54079 14.4671 11.5407 12.0001 11.5407C9.53309 11.5407 7.5332 9.54079 7.5332 7.0738C7.5332 4.60682 9.53309 2.60693 12.0001 2.60693C14.4671 2.60693 16.4669 4.60682 16.4669 7.0738ZM20.2065 14.1431H14.9565C14.6804 14.1431 14.4565 14.3669 14.4565 14.6431V19.8931C14.4565 20.1692 14.6804 20.3931 14.9565 20.3931H20.2065C20.4827 20.3931 20.7065 20.1692 20.7065 19.8931V14.6431C20.7065 14.3669 20.4827 14.1431 20.2065 14.1431ZM14.9565 13.1431C14.1281 13.1431 13.4565 13.8146 13.4565 14.6431V19.8931C13.4565 20.7215 14.1281 21.3931 14.9565 21.3931H20.2065C21.035 21.3931 21.7065 20.7215 21.7065 19.8931V14.6431C21.7065 13.8146 21.035 13.1431 20.2065 13.1431H14.9565ZM10.1301 19.9531L6.9086 14.3733C6.82777 14.2333 6.62569 14.2333 6.54487 14.3733L3.3234 19.9531C3.24257 20.0931 3.3436 20.2681 3.50526 20.2681H9.9482C10.1099 20.2681 10.2109 20.0931 10.1301 19.9531ZM7.77462 13.8733C7.30889 13.0666 6.14457 13.0666 5.67884 13.8733L2.45737 19.4531C1.99164 20.2597 2.5738 21.2681 3.50526 21.2681H9.9482C10.8797 21.2681 11.4618 20.2597 10.9961 19.4531L7.77462 13.8733Z" fill="black"/>
</svg>
